<?xml version="1.0"?>
<svg xmlns="http://www.w3.org/2000/svg" xmlns:xlink="http://www.w3.org/1999/xlink" xmlns:svgjs="http://svgjs.com/svgjs" version="1.1" width="512" height="512" x="0" y="0" viewBox="0 0 512 512" style="enable-background:new 0 0 512 512" xml:space="preserve"><g>
<path xmlns="http://www.w3.org/2000/svg" style="" d="M512,512H0V0h512V512z" fill="#ccefff" data-original="#ccefff"/>
<path xmlns="http://www.w3.org/2000/svg" style="" d="M512,512H256V0h256V512z" fill="#ace3fc" data-original="#ace3fc"/>
<path xmlns="http://www.w3.org/2000/svg" style="" d="M482,482H30V30h452V482z" fill="#57565c" data-original="#57565c"/>
<path xmlns="http://www.w3.org/2000/svg" style="" d="M482,482H256V30h226V482z" fill="#3e3d42" data-original="#3e3d42"/>
<path xmlns="http://www.w3.org/2000/svg" style="" d="M161.619,352V181.6h33.12v141.36h86.88V352H161.619z" fill="#ccefff" data-original="#ccefff"/>
<g xmlns="http://www.w3.org/2000/svg">
	<path style="" d="M373.54,254.08c-28.29,0-39.36,14.64-42.72,21.84V352h-32.16V226.24h29.52v26.88   c2.239-4.32,16.32-31.37,45.36-28.32L373.54,254.08L373.54,254.08z" fill="#ace3fc" data-original="#ace3fc"/>
	<rect x="256" y="322.96" style="" width="25.619" height="29.04" fill="#ace3fc" data-original="#ace3fc"/>
</g>
<g xmlns="http://www.w3.org/2000/svg">
</g>
<g xmlns="http://www.w3.org/2000/svg">
</g>
<g xmlns="http://www.w3.org/2000/svg">
</g>
<g xmlns="http://www.w3.org/2000/svg">
</g>
<g xmlns="http://www.w3.org/2000/svg">
</g>
<g xmlns="http://www.w3.org/2000/svg">
</g>
<g xmlns="http://www.w3.org/2000/svg">
</g>
<g xmlns="http://www.w3.org/2000/svg">
</g>
<g xmlns="http://www.w3.org/2000/svg">
</g>
<g xmlns="http://www.w3.org/2000/svg">
</g>
<g xmlns="http://www.w3.org/2000/svg">
</g>
<g xmlns="http://www.w3.org/2000/svg">
</g>
<g xmlns="http://www.w3.org/2000/svg">
</g>
<g xmlns="http://www.w3.org/2000/svg">
</g>
<g xmlns="http://www.w3.org/2000/svg">
</g>
</g></svg>
